<svg xmlns="http://www.w3.org/2000/svg" xmlns:xlink="http://www.w3.org/1999/xlink" width="" zoomAndPan="magnify" viewBox="0 0 375 374.999991" height="" preserveAspectRatio="xMidYMid meet" version="1.0"><defs><g/><clipPath id="id1"><path d="M 141.929688 89.871094 L 232.777344 89.871094 L 232.777344 128 L 141.929688 128 Z M 141.929688 89.871094 " clip-rule="nonzero"/></clipPath><clipPath id="id2"><path d="M 141.929688 127 L 209 127 L 209 191.316406 L 141.929688 191.316406 Z M 141.929688 127 " clip-rule="nonzero"/></clipPath></defs><g clip-path="url(#id1)"><path fill="#7ed957" d="M 153.460938 89.96875 L 221.265625 89.96875 C 222.023438 89.96875 222.773438 90.042969 223.515625 90.191406 C 224.261719 90.339844 224.980469 90.558594 225.679688 90.851562 C 226.378906 91.140625 227.042969 91.496094 227.675781 91.917969 C 228.304688 92.339844 228.886719 92.820312 229.421875 93.355469 C 229.957031 93.894531 230.433594 94.476562 230.855469 95.109375 C 231.277344 95.742188 231.632812 96.40625 231.921875 97.109375 C 232.210938 97.8125 232.429688 98.535156 232.578125 99.277344 C 232.726562 100.023438 232.800781 100.777344 232.800781 101.535156 L 232.800781 115.648438 C 232.800781 116.410156 232.726562 117.160156 232.578125 117.90625 C 232.429688 118.648438 232.210938 119.375 231.921875 120.074219 C 231.632812 120.777344 231.277344 121.441406 230.855469 122.074219 C 230.433594 122.707031 229.957031 123.289062 229.421875 123.828125 C 228.886719 124.363281 228.304688 124.84375 227.675781 125.265625 C 227.042969 125.6875 226.378906 126.042969 225.679688 126.332031 C 224.980469 126.625 224.261719 126.84375 223.515625 126.992188 C 222.773438 127.140625 222.023438 127.214844 221.265625 127.214844 L 141.929688 127.214844 L 141.929688 101.535156 C 141.929688 100.777344 142.003906 100.023438 142.152344 99.277344 C 142.296875 98.535156 142.515625 97.8125 142.808594 97.109375 C 143.097656 96.40625 143.453125 95.742188 143.871094 95.109375 C 144.292969 94.476562 144.769531 93.894531 145.308594 93.355469 C 145.84375 92.820312 146.425781 92.339844 147.054688 91.917969 C 147.683594 91.496094 148.347656 91.140625 149.046875 90.851562 C 149.746094 90.558594 150.46875 90.339844 151.210938 90.191406 C 151.953125 90.042969 152.703125 89.96875 153.460938 89.96875 Z M 153.460938 89.96875 " fill-opacity="1" fill-rule="nonzero"/></g><g clip-path="url(#id2)"><path fill="#7ed957" d="M 196.582031 127.214844 L 141.929688 127.214844 L 141.929688 191.214844 L 168.609375 164.449219 L 196.582031 164.449219 C 197.335938 164.449219 198.085938 164.375 198.832031 164.226562 C 199.574219 164.078125 200.292969 163.859375 200.992188 163.570312 C 201.691406 163.277344 202.359375 162.921875 202.988281 162.5 C 203.617188 162.078125 204.199219 161.597656 204.734375 161.0625 C 205.269531 160.523438 205.746094 159.941406 206.167969 159.308594 C 206.589844 158.679688 206.945312 158.011719 207.234375 157.308594 C 207.523438 156.609375 207.742188 155.886719 207.890625 155.140625 C 208.039062 154.394531 208.113281 153.644531 208.113281 152.882812 L 208.113281 138.773438 C 208.113281 138.015625 208.039062 137.261719 207.890625 136.519531 C 207.742188 135.773438 207.523438 135.050781 207.234375 134.351562 C 206.941406 133.648438 206.585938 132.984375 206.167969 132.351562 C 205.746094 131.71875 205.269531 131.136719 204.734375 130.601562 C 204.199219 130.0625 203.613281 129.582031 202.984375 129.164062 C 202.355469 128.742188 201.691406 128.382812 200.992188 128.09375 C 200.292969 127.804688 199.570312 127.585938 198.828125 127.4375 C 198.085938 127.289062 197.335938 127.214844 196.582031 127.214844 Z M 196.582031 127.214844 " fill-opacity="1" fill-rule="nonzero"/><path fill="#34af23" d="M 196.582031 127.214844 L 153.460938 127.214844 C 152.703125 127.214844 151.953125 127.289062 151.210938 127.4375 C 150.46875 127.585938 149.746094 127.804688 149.046875 128.09375 C 148.347656 128.386719 147.683594 128.742188 147.054688 129.164062 C 146.425781 129.585938 145.84375 130.066406 145.308594 130.601562 C 144.769531 131.136719 144.292969 131.722656 143.871094 132.355469 C 143.453125 132.984375 143.097656 133.652344 142.808594 134.351562 C 142.515625 135.054688 142.296875 135.777344 142.152344 136.523438 C 142.003906 137.269531 141.929688 138.019531 141.929688 138.777344 L 141.929688 191.214844 L 164.128906 168.949219 C 165.5625 167.511719 167.21875 166.402344 169.09375 165.621094 C 170.964844 164.839844 172.917969 164.449219 174.945312 164.449219 L 196.582031 164.449219 C 197.335938 164.449219 198.085938 164.375 198.832031 164.226562 C 199.574219 164.078125 200.292969 163.859375 200.992188 163.570312 C 201.691406 163.277344 202.359375 162.921875 202.988281 162.5 C 203.617188 162.078125 204.199219 161.597656 204.734375 161.0625 C 205.269531 160.523438 205.746094 159.941406 206.167969 159.308594 C 206.589844 158.679688 206.945312 158.011719 207.234375 157.308594 C 207.523438 156.609375 207.742188 155.886719 207.890625 155.140625 C 208.039062 154.394531 208.113281 153.644531 208.113281 152.882812 L 208.113281 138.773438 C 208.113281 138.015625 208.039062 137.261719 207.890625 136.519531 C 207.742188 135.773438 207.523438 135.050781 207.234375 134.351562 C 206.941406 133.648438 206.585938 132.984375 206.167969 132.351562 C 205.746094 131.71875 205.269531 131.136719 204.734375 130.601562 C 204.199219 130.0625 203.613281 129.582031 202.984375 129.164062 C 202.355469 128.742188 201.691406 128.382812 200.992188 128.09375 C 200.292969 127.804688 199.570312 127.585938 198.828125 127.4375 C 198.085938 127.289062 197.335938 127.214844 196.582031 127.214844 Z M 196.582031 127.214844 " fill-opacity="1" fill-rule="nonzero"/></g><path stroke-linecap="round" transform="matrix(3.754682, 0, 0, 3.78529, 159.028544, 146.233906)" fill="none" stroke-linejoin="miter" d="M 0.500097 0.000124007 L 8.776224 0.000124007 " stroke="#1b0c27" stroke-width="1" stroke-opacity="1" stroke-miterlimit="4"/><path stroke-linecap="round" transform="matrix(3.775066, 0, 0, 3.78529, 159.028544, 108.835238)" fill="none" stroke-linejoin="miter" d="M 0.500501 0.000184675 L 14.543095 0.000184675 " stroke="#1b0c27" stroke-width="1" stroke-opacity="1" stroke-miterlimit="4"/><g fill="#1b0c27" fill-opacity="1"><g transform="translate(54.632813, 243.843162)"><g><path d="M 20.941406 -42 L 4.800781 -42 L 4.800781 0 L 13.859375 0 L 13.859375 -13.078125 L 20.941406 -13.078125 C 29.398438 -13.078125 35.761719 -19.261719 35.761719 -27.539062 C 35.761719 -35.820312 29.339844 -42 20.941406 -42 Z M 20.519531 -21.480469 L 13.859375 -21.480469 L 13.859375 -33.539062 L 20.519531 -33.539062 C 24.121094 -33.539062 26.578125 -31.019531 26.578125 -27.539062 C 26.578125 -24.058594 24.121094 -21.480469 20.519531 -21.480469 Z M 20.519531 -21.480469 "/></g></g></g><g fill="#1b0c27" fill-opacity="1"><g transform="translate(91.952773, 243.843162)"><g><path d="M 4.199219 -36.71875 L 12.898438 -36.71875 L 12.898438 -44.820312 L 4.199219 -44.820312 Z M 4.199219 0 L 12.960938 0 L 12.960938 -32.398438 L 4.199219 -32.398438 Z M 4.199219 0 "/></g></g></g><g fill="#1b0c27" fill-opacity="1"><g transform="translate(109.112752, 243.843162)"><g><path d="M 41.039062 -33.121094 C 36.898438 -33.121094 33.238281 -31.078125 31.019531 -27.960938 C 29.101562 -31.199219 25.738281 -33.121094 21.601562 -33.121094 C 17.761719 -33.121094 14.21875 -31.261719 11.941406 -28.378906 L 10.320312 -32.398438 L 4.199219 -32.398438 L 4.199219 0 L 12.960938 0 L 12.960938 -17.519531 C 12.960938 -22.558594 15.300781 -25.441406 19.261719 -25.441406 C 22.378906 -25.441406 24.058594 -23.160156 24.058594 -18.839844 L 24.058594 0 L 32.578125 0 L 32.578125 -17.519531 C 32.578125 -22.558594 34.921875 -25.441406 38.820312 -25.441406 C 42 -25.441406 43.679688 -23.160156 43.679688 -18.839844 L 43.679688 0 L 52.441406 0 L 52.441406 -20.28125 C 52.441406 -27.898438 47.761719 -33.121094 41.039062 -33.121094 Z M 41.039062 -33.121094 "/></g></g></g><g fill="#1b0c27" fill-opacity="1"><g transform="translate(165.392697, 243.843162)"><g><path d="M 35.640625 -16.261719 C 35.640625 -25.621094 28.800781 -33.300781 18.839844 -33.300781 C 9.238281 -33.300781 2.039062 -25.921875 2.039062 -16.199219 C 2.039062 -6.480469 9.300781 0.960938 18.839844 0.960938 C 26.398438 0.960938 32.578125 -3.539062 34.921875 -10.621094 L 25.738281 -10.621094 C 24.421875 -8.28125 21.898438 -6.839844 18.839844 -6.839844 C 14.578125 -6.839844 11.699219 -9.300781 10.921875 -13.738281 L 35.460938 -13.738281 C 35.578125 -14.578125 35.640625 -15.421875 35.640625 -16.261719 Z M 18.839844 -25.800781 C 22.800781 -25.800781 25.621094 -23.640625 26.878906 -19.679688 L 11.160156 -19.679688 C 12.179688 -23.519531 14.941406 -25.800781 18.839844 -25.800781 Z M 18.839844 -25.800781 "/></g></g></g><g fill="#7ed957" fill-opacity="1"><g transform="translate(203.062491, 243.843162)"><g><path d="M 15.238281 -8.398438 L 32.578125 -40.320312 L 32.578125 -42 L 2.519531 -42 L 2.519531 -33.539062 L 19.078125 -33.539062 L 1.558594 -1.320312 L 1.558594 0 L 33.300781 0 L 33.300781 -8.398438 Z M 15.238281 -8.398438 "/></g></g></g><g fill="#7ed957" fill-opacity="1"><g transform="translate(238.042454, 243.843162)"><g><path d="M 30.601562 -32.398438 L 29.699219 -29.339844 C 26.878906 -31.800781 23.21875 -33.300781 19.019531 -33.300781 C 9.300781 -33.300781 2.039062 -25.980469 2.039062 -16.199219 C 2.039062 -6.421875 9.300781 0.960938 19.019531 0.960938 C 23.160156 0.960938 26.761719 -0.480469 29.519531 -2.941406 L 30.300781 0 L 37.140625 0 L 37.140625 -32.398438 Z M 19.738281 -7.320312 C 14.640625 -7.320312 10.921875 -11.160156 10.921875 -16.199219 C 10.921875 -21.300781 14.640625 -25.078125 19.738281 -25.078125 C 24.839844 -25.078125 28.558594 -21.300781 28.558594 -16.199219 C 28.558594 -11.101562 24.839844 -7.320312 19.738281 -7.320312 Z M 19.738281 -7.320312 "/></g></g></g><g fill="#7ed957" fill-opacity="1"><g transform="translate(279.442415, 243.843162)"><g><path d="M 21.839844 -33.300781 C 17.820312 -33.300781 14.21875 -31.859375 11.460938 -29.398438 L 9.960938 -32.398438 L 4.199219 -32.398438 L 4.199219 11.699219 L 12.960938 11.699219 L 12.960938 -1.738281 C 15.421875 0 18.480469 1.019531 21.839844 1.019531 C 31.621094 1.019531 38.820312 -6.359375 38.820312 -16.199219 C 38.820312 -25.980469 31.621094 -33.300781 21.839844 -33.300781 Z M 21.121094 -7.320312 C 16.019531 -7.320312 12.300781 -11.101562 12.300781 -16.199219 C 12.300781 -21.238281 16.019531 -25.078125 21.121094 -25.078125 C 26.21875 -25.078125 29.941406 -21.238281 29.941406 -16.199219 C 29.941406 -11.101562 26.21875 -7.320312 21.121094 -7.320312 Z M 21.121094 -7.320312 "/></g></g></g><g fill="#ffffff" fill-opacity="1"><g transform="translate(40.089846, 281.954513)"><g><path d="M 5.527344 -10.367188 L 1.261719 -10.367188 L 1.261719 0 L 5.894531 0 C 7.859375 0 8.871094 -1.554688 8.871094 -3.09375 C 8.871094 -4.0625 8.445312 -5.148438 7.273438 -5.644531 C 7.976562 -6.171875 8.300781 -6.921875 8.300781 -7.667969 C 8.300781 -9.03125 7.230469 -10.367188 5.527344 -10.367188 Z M 5.5 -6.171875 L 2.726562 -6.171875 L 2.726562 -8.957031 L 5.527344 -8.957031 C 6.363281 -8.957031 6.757812 -8.300781 6.757812 -7.609375 C 6.757812 -6.90625 6.320312 -6.171875 5.5 -6.171875 Z M 5.894531 -1.4375 L 2.726562 -1.4375 L 2.726562 -4.707031 L 5.894531 -4.707031 C 6.890625 -4.707031 7.390625 -3.886719 7.390625 -3.078125 C 7.390625 -2.273438 6.890625 -1.4375 5.894531 -1.4375 Z M 5.894531 -1.4375 "/></g></g></g><g fill="#ffffff" fill-opacity="1"><g transform="translate(49.501718, 281.954513)"><g><path d="M 9.339844 0 L 9.339844 -7.933594 L 7.902344 -7.933594 L 7.917969 -6.875 C 7.214844 -7.828125 6.027344 -8.0625 5.042969 -8.0625 C 2.359375 -8.0625 0.804688 -6.144531 0.804688 -4.003906 C 0.804688 -1.816406 2.300781 0.132812 5.074219 0.132812 C 6.054688 0.117188 7.332031 -0.207031 7.902344 -1.070312 L 7.902344 0 Z M 7.902344 -3.972656 C 7.902344 -2.066406 6.363281 -1.144531 5.042969 -1.144531 C 3.285156 -1.144531 2.242188 -2.507812 2.242188 -4.003906 C 2.242188 -5.570312 3.300781 -6.804688 5.042969 -6.804688 C 6.394531 -6.804688 7.902344 -5.863281 7.902344 -3.972656 Z M 7.902344 -3.972656 "/></g></g></g><g fill="#ffffff" fill-opacity="1"><g transform="translate(59.793206, 281.954513)"><g><path d="M 2.976562 -7.933594 L 2.976562 -9.691406 L 1.539062 -9.414062 L 1.539062 -7.933594 L 0.351562 -7.933594 L 0.351562 -6.789062 L 1.539062 -6.789062 L 1.539062 -2.332031 C 1.539062 -0.484375 2.550781 0.0429688 4.105469 0.0429688 C 4.3125 0.0429688 4.53125 0.03125 4.765625 0.015625 L 4.765625 -1.1875 C 4.546875 -1.171875 4.339844 -1.160156 4.164062 -1.160156 C 3.445312 -1.160156 2.976562 -1.378906 2.976562 -2.316406 L 2.976562 -6.789062 L 4.722656 -6.789062 L 4.722656 -7.933594 Z M 2.976562 -7.933594 "/></g></g></g><g fill="#ffffff" fill-opacity="1"><g transform="translate(64.836331, 281.954513)"><g><path d="M 8.886719 -4.3125 C 8.722656 -6.804688 6.789062 -8.050781 4.824219 -8.050781 C 2.726562 -8.050781 0.703125 -6.6875 0.703125 -3.957031 C 0.703125 -1.230469 2.757812 0.148438 4.792969 0.148438 C 6.421875 0.148438 8.050781 -0.71875 8.652344 -2.449219 L 7.171875 -2.449219 C 6.699219 -1.554688 5.792969 -1.128906 4.808594 -1.128906 C 3.621094 -1.128906 2.140625 -2.066406 2.140625 -3.621094 L 8.855469 -3.621094 C 8.886719 -3.753906 8.898438 -3.898438 8.898438 -4.0625 C 8.898438 -4.148438 8.898438 -4.222656 8.886719 -4.3125 Z M 7.375 -4.808594 L 2.199219 -4.808594 C 2.492188 -6.21875 3.664062 -6.789062 4.824219 -6.789062 C 5.96875 -6.789062 7.097656 -6.230469 7.375 -4.808594 Z M 7.375 -4.808594 "/></g></g></g><g fill="#ffffff" fill-opacity="1"><g transform="translate(74.512092, 281.954513)"><g><path d="M 4.984375 -5.160156 L 1.027344 -5.160156 L 1.027344 -3.945312 L 4.984375 -3.945312 Z M 4.984375 -5.160156 "/></g></g></g><g fill="#ffffff" fill-opacity="1"><g transform="translate(80.93328, 281.954513)"><g><path d="M 1.085938 2.316406 L 2.523438 2.316406 L 2.523438 -1.042969 C 3.226562 -0.101562 4.207031 0.132812 5.191406 0.132812 C 7.875 0.132812 9.28125 -1.789062 9.28125 -3.945312 C 9.28125 -6.113281 7.960938 -8.0625 5.207031 -8.0625 C 4.207031 -8.0625 3.09375 -7.742188 2.523438 -6.875 L 2.523438 -7.933594 L 1.085938 -7.933594 Z M 2.523438 -3.972656 C 2.523438 -5.863281 3.871094 -6.804688 5.207031 -6.804688 C 6.949219 -6.804688 7.84375 -5.410156 7.84375 -3.972656 C 7.84375 -2.550781 6.949219 -1.144531 5.191406 -1.144531 C 3.855469 -1.144531 2.523438 -2.082031 2.523438 -3.972656 Z M 2.523438 -3.972656 "/></g></g></g><g fill="#ffffff" fill-opacity="1"><g transform="translate(91.03419, 281.954513)"><g><path d="M 9.339844 0 L 9.339844 -7.933594 L 7.902344 -7.933594 L 7.917969 -6.875 C 7.214844 -7.828125 6.027344 -8.0625 5.042969 -8.0625 C 2.359375 -8.0625 0.804688 -6.144531 0.804688 -4.003906 C 0.804688 -1.816406 2.300781 0.132812 5.074219 0.132812 C 6.054688 0.117188 7.332031 -0.207031 7.902344 -1.070312 L 7.902344 0 Z M 7.902344 -3.972656 C 7.902344 -2.066406 6.363281 -1.144531 5.042969 -1.144531 C 3.285156 -1.144531 2.242188 -2.507812 2.242188 -4.003906 C 2.242188 -5.570312 3.300781 -6.804688 5.042969 -6.804688 C 6.394531 -6.804688 7.902344 -5.863281 7.902344 -3.972656 Z M 7.902344 -3.972656 "/></g></g></g><g fill="#ffffff" fill-opacity="1"><g transform="translate(101.325678, 281.954513)"><g><path d="M 1.085938 2.316406 L 2.523438 2.316406 L 2.523438 -1.042969 C 3.226562 -0.101562 4.207031 0.132812 5.191406 0.132812 C 7.875 0.132812 9.28125 -1.789062 9.28125 -3.945312 C 9.28125 -6.113281 7.960938 -8.0625 5.207031 -8.0625 C 4.207031 -8.0625 3.09375 -7.742188 2.523438 -6.875 L 2.523438 -7.933594 L 1.085938 -7.933594 Z M 2.523438 -3.972656 C 2.523438 -5.863281 3.871094 -6.804688 5.207031 -6.804688 C 6.949219 -6.804688 7.84375 -5.410156 7.84375 -3.972656 C 7.84375 -2.550781 6.949219 -1.144531 5.191406 -1.144531 C 3.855469 -1.144531 2.523438 -2.082031 2.523438 -3.972656 Z M 2.523438 -3.972656 "/></g></g></g><g fill="#ffffff" fill-opacity="1"><g transform="translate(111.426587, 281.954513)"><g><path d="M 9.3125 -3.957031 C 9.3125 -6.6875 7.199219 -8.0625 5.058594 -8.0625 C 2.902344 -8.0625 0.761719 -6.699219 0.761719 -3.957031 C 0.761719 -1.230469 2.886719 0.148438 5.015625 0.148438 C 7.171875 0.148438 9.3125 -1.21875 9.3125 -3.957031 Z M 2.199219 -3.957031 C 2.199219 -5.851562 3.621094 -6.789062 5.058594 -6.789062 C 6.464844 -6.789062 7.886719 -5.835938 7.886719 -3.957031 C 7.886719 -2.097656 6.464844 -1.144531 5.042969 -1.144531 C 3.621094 -1.144531 2.199219 -2.082031 2.199219 -3.957031 Z M 2.199219 -3.957031 "/></g></g></g><g fill="#ffffff" fill-opacity="1"><g transform="translate(121.600796, 281.954513)"><g/></g></g><g fill="#ffffff" fill-opacity="1"><g transform="translate(125.251198, 281.954513)"><g><path d="M 8.886719 -4.3125 C 8.722656 -6.804688 6.789062 -8.050781 4.824219 -8.050781 C 2.726562 -8.050781 0.703125 -6.6875 0.703125 -3.957031 C 0.703125 -1.230469 2.757812 0.148438 4.792969 0.148438 C 6.421875 0.148438 8.050781 -0.71875 8.652344 -2.449219 L 7.171875 -2.449219 C 6.699219 -1.554688 5.792969 -1.128906 4.808594 -1.128906 C 3.621094 -1.128906 2.140625 -2.066406 2.140625 -3.621094 L 8.855469 -3.621094 C 8.886719 -3.753906 8.898438 -3.898438 8.898438 -4.0625 C 8.898438 -4.148438 8.898438 -4.222656 8.886719 -4.3125 Z M 7.375 -4.808594 L 2.199219 -4.808594 C 2.492188 -6.21875 3.664062 -6.789062 4.824219 -6.789062 C 5.96875 -6.789062 7.097656 -6.230469 7.375 -4.808594 Z M 7.375 -4.808594 "/></g></g></g><g fill="#ffffff" fill-opacity="1"><g transform="translate(134.926959, 281.954513)"><g><path d="M 2.726562 -6.949219 L 2.726562 -8.0625 L 1.289062 -8.0625 L 1.289062 0 L 2.726562 0 L 2.726562 -4.3125 C 2.726562 -5.863281 3.679688 -6.730469 4.941406 -6.730469 C 6.261719 -6.730469 6.6875 -5.570312 6.6875 -4.457031 L 6.6875 0 L 8.121094 0 L 8.121094 -4.472656 C 8.121094 -5.761719 8.828125 -6.730469 10.234375 -6.730469 C 11.613281 -6.730469 11.890625 -5.617188 11.890625 -4.5 L 11.890625 0 L 13.328125 0 L 13.328125 -4.515625 C 13.328125 -6.523438 12.375 -8.0625 10.191406 -8.0625 C 9.03125 -8.050781 8.136719 -7.566406 7.652344 -6.6875 C 7.066406 -7.800781 6.070312 -8.0625 4.957031 -8.0625 C 4.03125 -8.0625 3.269531 -7.742188 2.726562 -6.949219 Z M 2.726562 -6.949219 "/></g></g></g><g fill="#ffffff" fill-opacity="1"><g transform="translate(149.367296, 281.954513)"><g/></g></g><g fill="#ffffff" fill-opacity="1"><g transform="translate(153.017698, 281.954513)"><g><path d="M 2.976562 -7.933594 L 2.976562 -9.691406 L 1.539062 -9.414062 L 1.539062 -7.933594 L 0.351562 -7.933594 L 0.351562 -6.789062 L 1.539062 -6.789062 L 1.539062 -2.332031 C 1.539062 -0.484375 2.550781 0.0429688 4.105469 0.0429688 C 4.3125 0.0429688 4.53125 0.03125 4.765625 0.015625 L 4.765625 -1.1875 C 4.546875 -1.171875 4.339844 -1.160156 4.164062 -1.160156 C 3.445312 -1.160156 2.976562 -1.378906 2.976562 -2.316406 L 2.976562 -6.789062 L 4.722656 -6.789062 L 4.722656 -7.933594 Z M 2.976562 -7.933594 "/></g></g></g><g fill="#ffffff" fill-opacity="1"><g transform="translate(158.060823, 281.954513)"><g><path d="M 8.886719 -4.3125 C 8.722656 -6.804688 6.789062 -8.050781 4.824219 -8.050781 C 2.726562 -8.050781 0.703125 -6.6875 0.703125 -3.957031 C 0.703125 -1.230469 2.757812 0.148438 4.792969 0.148438 C 6.421875 0.148438 8.050781 -0.71875 8.652344 -2.449219 L 7.171875 -2.449219 C 6.699219 -1.554688 5.792969 -1.128906 4.808594 -1.128906 C 3.621094 -1.128906 2.140625 -2.066406 2.140625 -3.621094 L 8.855469 -3.621094 C 8.886719 -3.753906 8.898438 -3.898438 8.898438 -4.0625 C 8.898438 -4.148438 8.898438 -4.222656 8.886719 -4.3125 Z M 7.375 -4.808594 L 2.199219 -4.808594 C 2.492188 -6.21875 3.664062 -6.789062 4.824219 -6.789062 C 5.96875 -6.789062 7.097656 -6.230469 7.375 -4.808594 Z M 7.375 -4.808594 "/></g></g></g><g fill="#ffffff" fill-opacity="1"><g transform="translate(167.736585, 281.954513)"><g><path d="M 2.726562 -6.949219 L 2.726562 -8.0625 L 1.289062 -8.0625 L 1.289062 0 L 2.726562 0 L 2.726562 -4.3125 C 2.726562 -5.863281 3.679688 -6.730469 4.941406 -6.730469 C 6.261719 -6.730469 6.6875 -5.570312 6.6875 -4.457031 L 6.6875 0 L 8.121094 0 L 8.121094 -4.472656 C 8.121094 -5.761719 8.828125 -6.730469 10.234375 -6.730469 C 11.613281 -6.730469 11.890625 -5.617188 11.890625 -4.5 L 11.890625 0 L 13.328125 0 L 13.328125 -4.515625 C 13.328125 -6.523438 12.375 -8.0625 10.191406 -8.0625 C 9.03125 -8.050781 8.136719 -7.566406 7.652344 -6.6875 C 7.066406 -7.800781 6.070312 -8.0625 4.957031 -8.0625 C 4.03125 -8.0625 3.269531 -7.742188 2.726562 -6.949219 Z M 2.726562 -6.949219 "/></g></g></g><g fill="#ffffff" fill-opacity="1"><g transform="translate(182.176922, 281.954513)"><g><path d="M 1.085938 2.316406 L 2.523438 2.316406 L 2.523438 -1.042969 C 3.226562 -0.101562 4.207031 0.132812 5.191406 0.132812 C 7.875 0.132812 9.28125 -1.789062 9.28125 -3.945312 C 9.28125 -6.113281 7.960938 -8.0625 5.207031 -8.0625 C 4.207031 -8.0625 3.09375 -7.742188 2.523438 -6.875 L 2.523438 -7.933594 L 1.085938 -7.933594 Z M 2.523438 -3.972656 C 2.523438 -5.863281 3.871094 -6.804688 5.207031 -6.804688 C 6.949219 -6.804688 7.84375 -5.410156 7.84375 -3.972656 C 7.84375 -2.550781 6.949219 -1.144531 5.191406 -1.144531 C 3.855469 -1.144531 2.523438 -2.082031 2.523438 -3.972656 Z M 2.523438 -3.972656 "/></g></g></g><g fill="#ffffff" fill-opacity="1"><g transform="translate(192.277831, 281.954513)"><g><path d="M 9.3125 -3.957031 C 9.3125 -6.6875 7.199219 -8.0625 5.058594 -8.0625 C 2.902344 -8.0625 0.761719 -6.699219 0.761719 -3.957031 C 0.761719 -1.230469 2.886719 0.148438 5.015625 0.148438 C 7.171875 0.148438 9.3125 -1.21875 9.3125 -3.957031 Z M 2.199219 -3.957031 C 2.199219 -5.851562 3.621094 -6.789062 5.058594 -6.789062 C 6.464844 -6.789062 7.886719 -5.835938 7.886719 -3.957031 C 7.886719 -2.097656 6.464844 -1.144531 5.042969 -1.144531 C 3.621094 -1.144531 2.199219 -2.082031 2.199219 -3.957031 Z M 2.199219 -3.957031 "/></g></g></g><g fill="#ffffff" fill-opacity="1"><g transform="translate(202.45204, 281.954513)"><g/></g></g><g fill="#ffffff" fill-opacity="1"><g transform="translate(206.102442, 281.954513)"><g><path d="M 2.523438 -6.949219 L 2.523438 -7.917969 L 1.101562 -7.917969 L 1.101562 0 L 2.523438 0 L 2.523438 -4.296875 C 2.523438 -5.746094 3.636719 -6.816406 4.96875 -6.816406 C 5.207031 -6.816406 5.453125 -6.789062 5.703125 -6.714844 L 5.703125 -7.976562 C 5.382812 -8.050781 5.074219 -8.09375 4.765625 -8.09375 C 3.886719 -8.09375 3.09375 -7.742188 2.523438 -6.949219 Z M 2.523438 -6.949219 "/></g></g></g><g fill="#ffffff" fill-opacity="1"><g transform="translate(212.259741, 281.954513)"><g><path d="M 8.886719 -4.3125 C 8.722656 -6.804688 6.789062 -8.050781 4.824219 -8.050781 C 2.726562 -8.050781 0.703125 -6.6875 0.703125 -3.957031 C 0.703125 -1.230469 2.757812 0.148438 4.792969 0.148438 C 6.421875 0.148438 8.050781 -0.71875 8.652344 -2.449219 L 7.171875 -2.449219 C 6.699219 -1.554688 5.792969 -1.128906 4.808594 -1.128906 C 3.621094 -1.128906 2.140625 -2.066406 2.140625 -3.621094 L 8.855469 -3.621094 C 8.886719 -3.753906 8.898438 -3.898438 8.898438 -4.0625 C 8.898438 -4.148438 8.898438 -4.222656 8.886719 -4.3125 Z M 7.375 -4.808594 L 2.199219 -4.808594 C 2.492188 -6.21875 3.664062 -6.789062 4.824219 -6.789062 C 5.96875 -6.789062 7.097656 -6.230469 7.375 -4.808594 Z M 7.375 -4.808594 "/></g></g></g><g fill="#ffffff" fill-opacity="1"><g transform="translate(221.935502, 281.954513)"><g><path d="M 9.339844 0 L 9.339844 -7.933594 L 7.902344 -7.933594 L 7.917969 -6.875 C 7.214844 -7.828125 6.027344 -8.0625 5.042969 -8.0625 C 2.359375 -8.0625 0.804688 -6.144531 0.804688 -4.003906 C 0.804688 -1.816406 2.300781 0.132812 5.074219 0.132812 C 6.054688 0.117188 7.332031 -0.207031 7.902344 -1.070312 L 7.902344 0 Z M 7.902344 -3.972656 C 7.902344 -2.066406 6.363281 -1.144531 5.042969 -1.144531 C 3.285156 -1.144531 2.242188 -2.507812 2.242188 -4.003906 C 2.242188 -5.570312 3.300781 -6.804688 5.042969 -6.804688 C 6.394531 -6.804688 7.902344 -5.863281 7.902344 -3.972656 Z M 7.902344 -3.972656 "/></g></g></g><g fill="#ffffff" fill-opacity="1"><g transform="translate(232.226979, 281.954513)"><g><path d="M 1.101562 0 L 2.535156 0 L 2.535156 -10.265625 L 1.101562 -10.265625 Z M 1.101562 0 "/></g></g></g><g fill="#ffffff" fill-opacity="1"><g transform="translate(235.862721, 281.954513)"><g><path d="M 1.277344 -1.230469 L 0.207031 1.464844 L 1.511719 1.464844 L 2.875 -1.230469 Z M 1.277344 -1.230469 "/></g></g></g><g fill="#ffffff" fill-opacity="1"><g transform="translate(239.425175, 281.954513)"><g/></g></g><g fill="#ffffff" fill-opacity="1"><g transform="translate(243.075565, 281.954513)"><g><path d="M 6.277344 -7.933594 L 4.984375 -4.675781 L 4.015625 -1.921875 L 3.050781 -4.707031 L 1.746094 -7.933594 L 0.21875 -7.933594 L 3.445312 0.0585938 L 4.589844 0.0585938 L 7.800781 -7.933594 Z M 6.277344 -7.933594 "/></g></g></g><g fill="#ffffff" fill-opacity="1"><g transform="translate(251.124034, 281.954513)"><g><path d="M 8.886719 -4.3125 C 8.722656 -6.804688 6.789062 -8.050781 4.824219 -8.050781 C 2.726562 -8.050781 0.703125 -6.6875 0.703125 -3.957031 C 0.703125 -1.230469 2.757812 0.148438 4.792969 0.148438 C 6.421875 0.148438 8.050781 -0.71875 8.652344 -2.449219 L 7.171875 -2.449219 C 6.699219 -1.554688 5.792969 -1.128906 4.808594 -1.128906 C 3.621094 -1.128906 2.140625 -2.066406 2.140625 -3.621094 L 8.855469 -3.621094 C 8.886719 -3.753906 8.898438 -3.898438 8.898438 -4.0625 C 8.898438 -4.148438 8.898438 -4.222656 8.886719 -4.3125 Z M 7.375 -4.808594 L 2.199219 -4.808594 C 2.492188 -6.21875 3.664062 -6.789062 4.824219 -6.789062 C 5.96875 -6.789062 7.097656 -6.230469 7.375 -4.808594 Z M 7.375 -4.808594 "/></g></g></g><g fill="#ffffff" fill-opacity="1"><g transform="translate(260.799807, 281.954513)"><g><path d="M 2.726562 -6.949219 L 2.726562 -8.0625 L 1.289062 -8.0625 L 1.289062 0 L 2.726562 0 L 2.726562 -4.3125 C 2.726562 -5.863281 3.679688 -6.730469 4.941406 -6.730469 C 6.261719 -6.730469 6.6875 -5.570312 6.6875 -4.457031 L 6.6875 0 L 8.121094 0 L 8.121094 -4.472656 C 8.121094 -5.761719 8.828125 -6.730469 10.234375 -6.730469 C 11.613281 -6.730469 11.890625 -5.617188 11.890625 -4.5 L 11.890625 0 L 13.328125 0 L 13.328125 -4.515625 C 13.328125 -6.523438 12.375 -8.0625 10.191406 -8.0625 C 9.03125 -8.050781 8.136719 -7.566406 7.652344 -6.6875 C 7.066406 -7.800781 6.070312 -8.0625 4.957031 -8.0625 C 4.03125 -8.0625 3.269531 -7.742188 2.726562 -6.949219 Z M 2.726562 -6.949219 "/></g></g></g><g fill="#ffffff" fill-opacity="1"><g transform="translate(275.240144, 281.954513)"><g/></g></g><g fill="#ffffff" fill-opacity="1"><g transform="translate(278.890535, 281.954513)"><g><path d="M 1.085938 2.316406 L 2.523438 2.316406 L 2.523438 -1.042969 C 3.226562 -0.101562 4.207031 0.132812 5.191406 0.132812 C 7.875 0.132812 9.28125 -1.789062 9.28125 -3.945312 C 9.28125 -6.113281 7.960938 -8.0625 5.207031 -8.0625 C 4.207031 -8.0625 3.09375 -7.742188 2.523438 -6.875 L 2.523438 -7.933594 L 1.085938 -7.933594 Z M 2.523438 -3.972656 C 2.523438 -5.863281 3.871094 -6.804688 5.207031 -6.804688 C 6.949219 -6.804688 7.84375 -5.410156 7.84375 -3.972656 C 7.84375 -2.550781 6.949219 -1.144531 5.191406 -1.144531 C 3.855469 -1.144531 2.523438 -2.082031 2.523438 -3.972656 Z M 2.523438 -3.972656 "/></g></g></g><g fill="#ffffff" fill-opacity="1"><g transform="translate(288.991456, 281.954513)"><g><path d="M 2.523438 -6.949219 L 2.523438 -7.917969 L 1.101562 -7.917969 L 1.101562 0 L 2.523438 0 L 2.523438 -4.296875 C 2.523438 -5.746094 3.636719 -6.816406 4.96875 -6.816406 C 5.207031 -6.816406 5.453125 -6.789062 5.703125 -6.714844 L 5.703125 -7.976562 C 5.382812 -8.050781 5.074219 -8.09375 4.765625 -8.09375 C 3.886719 -8.09375 3.09375 -7.742188 2.523438 -6.949219 Z M 2.523438 -6.949219 "/></g></g></g><g fill="#ffffff" fill-opacity="1"><g transform="translate(295.148743, 281.954513)"><g><path d="M 9.3125 -3.957031 C 9.3125 -6.6875 7.199219 -8.0625 5.058594 -8.0625 C 2.902344 -8.0625 0.761719 -6.699219 0.761719 -3.957031 C 0.761719 -1.230469 2.886719 0.148438 5.015625 0.148438 C 7.171875 0.148438 9.3125 -1.21875 9.3125 -3.957031 Z M 2.199219 -3.957031 C 2.199219 -5.851562 3.621094 -6.789062 5.058594 -6.789062 C 6.464844 -6.789062 7.886719 -5.835938 7.886719 -3.957031 C 7.886719 -2.097656 6.464844 -1.144531 5.042969 -1.144531 C 3.621094 -1.144531 2.199219 -2.082031 2.199219 -3.957031 Z M 2.199219 -3.957031 "/></g></g></g><g fill="#ffffff" fill-opacity="1"><g transform="translate(305.322952, 281.954513)"><g/></g></g><g fill="#ffffff" fill-opacity="1"><g transform="translate(308.973342, 281.954513)"><g><path d="M 2.300781 -1.320312 L 8.019531 -9.207031 L 8.019531 -10.367188 L 0.585938 -10.367188 L 0.585938 -9.046875 L 6.277344 -9.046875 L 0.585938 -1.21875 L 0.585938 0 L 8.09375 0 L 8.09375 -1.320312 Z M 2.300781 -1.320312 "/></g></g></g><g fill="#ffffff" fill-opacity="1"><g transform="translate(317.65222, 281.954513)"><g><path d="M 9.339844 0 L 9.339844 -7.933594 L 7.902344 -7.933594 L 7.917969 -6.875 C 7.214844 -7.828125 6.027344 -8.0625 5.042969 -8.0625 C 2.359375 -8.0625 0.804688 -6.144531 0.804688 -4.003906 C 0.804688 -1.816406 2.300781 0.132812 5.074219 0.132812 C 6.054688 0.117188 7.332031 -0.207031 7.902344 -1.070312 L 7.902344 0 Z M 7.902344 -3.972656 C 7.902344 -2.066406 6.363281 -1.144531 5.042969 -1.144531 C 3.285156 -1.144531 2.242188 -2.507812 2.242188 -4.003906 C 2.242188 -5.570312 3.300781 -6.804688 5.042969 -6.804688 C 6.394531 -6.804688 7.902344 -5.863281 7.902344 -3.972656 Z M 7.902344 -3.972656 "/></g></g></g><g fill="#ffffff" fill-opacity="1"><g transform="translate(327.943708, 281.954513)"><g><path d="M 1.085938 2.316406 L 2.523438 2.316406 L 2.523438 -1.042969 C 3.226562 -0.101562 4.207031 0.132812 5.191406 0.132812 C 7.875 0.132812 9.28125 -1.789062 9.28125 -3.945312 C 9.28125 -6.113281 7.960938 -8.0625 5.207031 -8.0625 C 4.207031 -8.0625 3.09375 -7.742188 2.523438 -6.875 L 2.523438 -7.933594 L 1.085938 -7.933594 Z M 2.523438 -3.972656 C 2.523438 -5.863281 3.871094 -6.804688 5.207031 -6.804688 C 6.949219 -6.804688 7.84375 -5.410156 7.84375 -3.972656 C 7.84375 -2.550781 6.949219 -1.144531 5.191406 -1.144531 C 3.855469 -1.144531 2.523438 -2.082031 2.523438 -3.972656 Z M 2.523438 -3.972656 "/></g></g></g><g fill="#ffffff" fill-opacity="1"><g transform="translate(338.044629, 281.954513)"><g><path d="M 2.417969 -2.257812 L 2.417969 -10.265625 L 0.878906 -10.265625 L 0.878906 -2.257812 Z M 1.613281 -1.6875 C 1.128906 -1.6875 0.734375 -1.320312 0.734375 -0.761719 C 0.734375 -0.324219 1.128906 0.0898438 1.613281 0.0898438 C 2.171875 0.0898438 2.550781 -0.324219 2.550781 -0.761719 C 2.550781 -1.320312 2.171875 -1.6875 1.613281 -1.6875 Z M 1.613281 -1.6875 "/></g></g></g></svg>