<svg xmlns="http://www.w3.org/2000/svg"
  xmlns:xlink="http://www.w3.org/1999/xlink" id="svg" version="1.1" width="400" height="400" viewBox="0, 0, 400,400">
  <g id="svgg">

    <path id="path1" d="M170.489 114.223 C 170.000 114.565,169.600 115.050,169.600 115.299 C 169.600 115.549,169.856 115.404,170.168 114.976 C 170.721 114.220,171.492 114.200,199.930 114.200 C 215.986 114.200,229.040 114.065,228.938 113.900 C 228.527 113.235,171.449 113.551,170.489 114.223 M229.837 115.435 C 230.355 118.137,231.952 118.000,199.971 118.000 C 171.733 118.000,171.185 117.985,170.400 117.200 C 169.960 116.760,169.600 116.605,169.600 116.856 C 169.600 118.347,170.126 118.374,199.811 118.387 C 225.253 118.399,228.726 118.327,229.511 117.777 C 230.445 117.123,230.658 115.812,229.994 114.800 C 229.712 114.368,229.667 114.546,229.837 115.435 M161.800 135.964 C 157.647 136.521,153.680 139.689,152.605 143.307 C 151.827 145.926,151.680 201.355,152.450 201.831 C 152.718 201.996,157.773 197.225,164.950 190.032 C 181.022 173.923,178.309 175.126,198.800 175.023 C 214.466 174.945,214.640 174.912,218.003 171.459 C 221.291 168.083,221.400 167.580,221.400 155.800 C 221.400 142.548,220.531 140.159,214.600 137.098 L 212.200 135.860 188.000 135.778 C 174.690 135.733,162.900 135.817,161.800 135.964 M206.171 154.629 C 206.517 154.974,206.800 155.591,206.800 156.000 C 206.800 158.000,206.803 158.000,188.200 158.000 C 169.597 158.000,169.600 158.000,169.600 156.000 C 169.600 154.000,169.597 154.000,188.200 154.000 C 203.433 154.000,205.619 154.076,206.171 154.629 " stroke="none" fill="#38aa29" fill-rule="evenodd"/>
    <path id="path2" d="M160.557 97.316 C 157.678 98.358,154.317 101.203,153.293 103.467 C 152.676 104.833,152.592 106.808,152.526 121.600 C 152.486 130.730,152.366 139.730,152.261 141.600 L 152.069 145.000 152.635 143.139 C 153.312 140.915,156.005 138.086,158.741 136.725 L 160.600 135.800 186.418 135.800 C 210.332 135.800,212.314 135.852,213.304 136.500 C 214.881 137.534,215.159 137.350,213.675 136.255 L 212.395 135.311 214.697 135.036 C 215.964 134.885,221.500 134.771,227.000 134.783 C 240.818 134.812,243.618 133.752,246.842 127.267 C 247.804 125.331,247.797 107.462,246.832 104.400 C 245.921 101.508,242.585 98.585,238.879 97.433 L 235.559 96.400 199.279 96.416 L 163.000 96.433 160.557 97.316 M227.700 113.447 C 229.185 113.581,230.418 113.805,230.440 113.945 C 230.990 117.496,230.512 118.587,228.460 118.466 C 227.582 118.414,226.750 118.558,226.609 118.786 C 226.280 119.317,222.800 119.330,222.800 118.800 C 222.800 118.580,221.990 118.400,221.000 118.400 C 220.010 118.400,219.200 118.547,219.200 118.727 C 219.200 118.907,215.735 118.998,211.500 118.930 C 190.825 118.596,171.661 118.575,171.853 118.886 C 172.154 119.372,169.859 118.766,169.537 118.275 C 169.392 118.054,169.378 117.602,169.505 117.271 C 169.655 116.879,169.573 116.770,169.268 116.958 C 168.945 117.158,168.809 116.837,168.828 115.924 C 168.847 115.036,168.946 114.824,169.128 115.282 C 169.364 115.872,169.460 115.836,169.847 115.015 C 170.228 114.205,170.199 114.100,169.647 114.297 C 169.271 114.431,169.139 114.375,169.333 114.164 C 169.877 113.570,170.762 113.543,196.380 113.355 C 209.899 113.255,221.058 113.075,221.179 112.954 C 221.299 112.834,222.209 112.841,223.199 112.969 C 224.190 113.098,226.215 113.313,227.700 113.447 M221.770 155.600 C 221.770 160.330,221.828 162.265,221.898 159.900 C 221.969 157.535,221.969 153.665,221.898 151.300 C 221.828 148.935,221.770 150.870,221.770 155.600 M188.691 175.089 C 189.401 175.177,190.661 175.179,191.491 175.092 C 192.321 175.005,191.740 174.933,190.200 174.931 C 188.660 174.929,187.981 175.000,188.691 175.089 M209.905 175.083 C 210.402 175.179,211.122 175.175,211.505 175.075 C 211.887 174.975,211.480 174.896,210.600 174.901 C 209.720 174.905,209.407 174.987,209.905 175.083 M176.175 178.900 L 175.000 180.200 176.300 179.025 C 177.015 178.379,177.600 177.794,177.600 177.725 C 177.600 177.416,177.270 177.688,176.175 178.900 M158.175 196.900 L 157.000 198.200 158.300 197.025 C 159.015 196.379,159.600 195.794,159.600 195.725 C 159.600 195.416,159.270 195.688,158.175 196.900 M151.693 198.800 C 151.693 199.570,151.775 199.885,151.876 199.500 C 151.976 199.115,151.976 198.485,151.876 198.100 C 151.775 197.715,151.693 198.030,151.693 198.800 M220.445 216.515 C 219.669 217.291,219.877 222.706,220.700 223.146 C 221.085 223.351,224.550 223.508,228.400 223.494 C 237.649 223.460,238.244 223.710,236.465 226.888 C 236.061 227.610,234.866 229.820,233.810 231.800 C 232.754 233.780,231.577 235.940,231.194 236.600 C 229.335 239.805,227.512 243.148,222.477 252.585 C 218.556 259.936,217.259 259.272,235.248 259.122 C 251.856 258.984,250.862 259.201,251.118 255.662 C 251.402 251.736,251.162 251.551,245.875 251.602 C 237.061 251.688,233.391 251.582,232.830 251.227 C 232.282 250.880,233.467 247.937,235.740 244.000 C 236.057 243.450,236.651 242.195,237.059 241.212 C 237.466 240.229,238.194 238.956,238.675 238.384 C 239.156 237.812,240.191 236.097,240.975 234.572 C 241.758 233.047,243.105 230.540,243.968 229.000 C 247.598 222.518,250.118 217.286,249.893 216.698 C 249.591 215.910,221.226 215.734,220.445 216.515 M270.800 225.774 C 258.874 227.993,253.257 241.876,259.978 252.519 C 261.487 254.907,263.809 257.200,264.719 257.200 C 264.924 257.200,265.540 257.552,266.086 257.982 C 269.959 261.028,278.513 260.768,283.235 257.461 C 284.517 256.562,285.176 256.628,286.378 257.775 C 287.754 259.088,291.158 259.585,292.129 258.614 C 293.124 257.619,293.160 226.624,292.167 226.243 C 290.230 225.499,288.053 225.984,286.973 227.400 C 285.655 229.128,285.418 229.129,282.086 227.431 C 277.730 225.210,275.550 224.890,270.800 225.774 M316.938 225.948 C 316.023 226.111,314.534 226.734,313.628 227.334 C 310.925 229.122,309.899 229.139,308.584 227.415 C 307.517 226.015,307.377 225.957,305.434 226.103 L 303.400 226.256 303.297 248.383 C 303.179 273.650,302.846 271.599,307.052 271.556 C 311.292 271.512,311.290 271.515,311.130 264.783 C 310.983 258.550,311.525 256.938,313.365 258.137 C 319.927 262.414,329.780 260.228,335.095 253.317 C 340.399 246.421,339.774 237.352,333.542 230.788 C 332.740 229.943,332.020 229.083,331.942 228.876 C 331.135 226.739,322.243 225.003,316.938 225.948 M276.800 232.813 C 282.458 234.050,284.906 236.810,285.138 242.215 C 285.425 248.938,281.039 253.189,274.299 252.719 C 261.424 251.822,261.864 234.012,274.800 232.444 C 274.910 232.430,275.810 232.597,276.800 232.813 M324.400 233.232 C 332.572 236.321,332.803 248.519,324.755 251.981 C 317.576 255.070,310.400 250.518,310.400 242.875 C 310.400 235.280,317.281 230.541,324.400 233.232 " stroke="none" fill="#7fd959" fill-rule="evenodd"/>
    <path id="path3" d="M171.600 114.275 C 169.719 114.616,169.165 115.965,170.400 117.200 C 171.510 118.310,228.268 118.475,229.371 117.371 C 230.080 116.662,230.170 115.689,229.609 114.800 C 229.241 114.218,174.637 113.724,171.600 114.275 M170.229 154.629 C 169.883 154.974,169.600 155.591,169.600 156.000 C 169.600 158.000,169.597 158.000,188.200 158.000 C 206.803 158.000,206.800 158.000,206.800 156.000 C 206.800 154.000,206.803 154.000,188.200 154.000 C 172.967 154.000,170.781 154.076,170.229 154.629 " stroke="none" fill="#18191e" fill-rule="evenodd"/>
    <path id="path4" d="M158.904 96.953 C 156.456 97.984,154.363 99.873,152.866 102.400 L 151.800 104.200 151.546 127.400 C 151.110 167.218,151.150 203.122,151.631 203.419 C 151.874 203.569,157.599 198.187,164.731 191.103 C 175.341 180.567,177.790 178.333,179.800 177.361 L 182.200 176.200 197.000 175.956 C 212.407 175.702,212.685 175.676,215.566 174.269 C 220.974 171.628,222.401 167.730,222.396 155.627 C 222.390 143.387,221.092 139.701,215.800 136.901 L 214.600 136.266 215.714 135.964 C 216.327 135.798,221.457 135.647,227.114 135.629 C 240.690 135.585,241.375 135.434,244.867 131.701 C 248.079 128.267,248.000 128.665,248.000 115.946 C 248.000 101.723,247.184 99.629,240.603 96.951 L 238.264 96.000 199.632 96.035 L 161.000 96.070 158.904 96.953 M238.879 97.433 C 242.585 98.585,245.921 101.508,246.832 104.400 C 247.797 107.462,247.804 125.331,246.842 127.267 C 243.618 133.752,240.818 134.812,227.000 134.783 C 212.076 134.750,210.921 135.006,215.460 137.333 C 220.680 140.010,221.800 143.273,221.800 155.800 C 221.800 168.171,220.787 170.893,215.055 173.916 L 213.000 175.000 198.400 175.252 C 177.888 175.606,180.931 174.235,164.640 190.461 C 157.566 197.506,152.499 202.259,152.287 202.047 C 151.899 201.659,151.851 150.627,152.231 141.600 C 152.355 138.630,152.490 129.180,152.529 120.600 C 152.592 106.754,152.678 104.828,153.293 103.467 C 154.317 101.203,157.678 98.358,160.557 97.316 L 163.000 96.433 199.279 96.416 L 235.559 96.400 238.879 97.433 M220.000 113.200 C 218.992 113.412,219.608 113.502,222.200 113.519 C 224.541 113.535,225.520 113.424,225.000 113.200 C 224.049 112.792,221.941 112.792,220.000 113.200 M173.700 113.487 C 174.305 113.578,175.295 113.578,175.900 113.487 C 176.505 113.395,176.010 113.320,174.800 113.320 C 173.590 113.320,173.095 113.395,173.700 113.487 M189.072 113.500 C 194.392 113.563,203.212 113.563,208.672 113.500 C 214.133 113.437,209.780 113.385,199.000 113.385 C 188.220 113.385,183.753 113.437,189.072 113.500 M229.551 114.440 C 230.538 115.360,230.961 115.284,230.567 114.257 C 230.428 113.896,229.940 113.600,229.482 113.600 C 228.660 113.600,228.661 113.611,229.551 114.440 M168.825 115.980 C 168.808 116.927,168.929 117.231,169.212 116.948 C 169.485 116.675,169.494 116.209,169.238 115.568 C 168.874 114.658,168.849 114.683,168.825 115.980 M229.691 117.584 C 229.192 118.001,228.952 118.447,229.159 118.575 C 229.568 118.828,230.800 117.774,230.800 117.171 C 230.800 116.682,230.753 116.699,229.691 117.584 M169.455 118.200 C 169.582 118.530,169.922 118.800,170.210 118.800 C 170.499 118.800,171.064 118.907,171.467 119.037 C 171.991 119.207,171.914 119.038,171.200 118.446 C 170.025 117.472,169.128 117.346,169.455 118.200 M179.800 118.671 C 185.493 118.947,219.200 118.972,219.200 118.700 C 219.200 118.535,209.795 118.435,198.300 118.477 C 186.805 118.519,178.480 118.607,179.800 118.671 M222.800 118.800 C 222.800 119.020,223.599 119.200,224.576 119.200 C 225.553 119.200,226.464 119.020,226.600 118.800 C 226.752 118.553,226.071 118.400,224.824 118.400 C 223.711 118.400,222.800 118.580,222.800 118.800 M219.467 215.467 C 219.320 215.613,219.200 217.574,219.200 219.823 L 219.200 223.913 220.300 224.193 C 220.905 224.346,224.370 224.434,228.000 224.387 C 236.926 224.273,236.508 224.228,236.183 225.254 C 236.034 225.723,235.329 227.118,234.616 228.354 C 233.902 229.589,232.453 232.220,231.394 234.200 C 230.335 236.180,229.048 238.565,228.534 239.500 C 228.020 240.435,227.180 241.965,226.666 242.900 C 226.152 243.835,224.867 246.220,223.811 248.200 C 222.755 250.180,221.577 252.340,221.195 253.000 C 219.117 256.583,218.400 258.127,218.400 259.014 L 218.400 260.000 235.156 260.000 L 251.912 260.000 252.056 258.700 C 252.135 257.985,252.141 256.005,252.068 254.300 L 251.937 251.200 244.068 251.148 C 234.786 251.088,234.123 251.056,233.730 250.663 C 233.441 250.374,234.804 247.499,237.836 242.000 C 240.490 237.188,241.888 234.616,243.600 231.400 C 244.537 229.640,245.523 227.840,245.793 227.400 C 246.062 226.960,247.234 224.800,248.399 222.600 C 249.563 220.400,250.669 218.429,250.858 218.220 C 251.046 218.011,251.200 217.246,251.200 216.520 L 251.200 215.200 235.467 215.200 C 226.813 215.200,219.613 215.320,219.467 215.467 M249.893 216.698 C 250.118 217.286,247.598 222.518,243.968 229.000 C 243.105 230.540,241.758 233.047,240.975 234.572 C 240.191 236.097,239.156 237.812,238.675 238.384 C 238.194 238.956,237.466 240.229,237.059 241.212 C 236.651 242.195,236.057 243.450,235.740 244.000 C 233.467 247.937,232.282 250.880,232.830 251.227 C 233.391 251.582,237.061 251.688,245.875 251.602 C 250.093 251.561,250.377 251.609,250.819 252.435 C 251.398 253.518,251.140 257.820,250.455 258.506 C 249.652 259.309,220.705 259.450,220.045 258.654 C 219.524 258.027,224.685 247.819,231.194 236.600 C 231.577 235.940,232.754 233.780,233.810 231.800 C 234.866 229.820,236.061 227.610,236.465 226.888 C 238.244 223.710,237.649 223.460,228.400 223.494 C 224.550 223.508,221.085 223.351,220.700 223.146 C 219.877 222.706,219.669 217.291,220.445 216.515 C 221.226 215.734,249.591 215.910,249.893 216.698 M270.686 224.816 C 256.875 227.138,251.209 245.571,261.228 255.590 C 267.000 261.362,276.122 262.677,282.918 258.717 C 285.290 257.335,285.287 257.335,285.936 258.800 L 286.467 260.000 290.034 260.000 L 293.600 260.000 293.600 242.847 L 293.600 225.693 292.700 225.542 C 290.835 225.227,286.400 225.661,286.400 226.158 C 286.400 227.988,285.443 228.106,282.582 226.628 C 278.575 224.558,275.240 224.050,270.686 224.816 M318.200 224.680 C 316.067 225.180,313.657 226.138,312.309 227.022 C 310.409 228.268,310.150 228.251,309.418 226.834 C 308.826 225.690,305.571 225.023,303.046 225.529 C 302.262 225.686,302.033 271.726,302.813 272.208 C 303.389 272.564,310.964 272.593,311.534 272.241 C 311.857 272.041,312.000 270.006,312.000 265.600 C 312.000 258.299,311.861 258.564,315.002 259.876 C 330.573 266.378,345.277 248.479,336.943 233.166 C 333.735 227.272,324.664 223.165,318.200 224.680 M277.494 225.631 C 278.542 225.867,280.609 226.677,282.086 227.431 C 285.418 229.129,285.655 229.128,286.973 227.400 C 288.053 225.984,290.230 225.499,292.167 226.243 C 293.160 226.624,293.124 257.619,292.129 258.614 C 291.158 259.585,287.754 259.088,286.378 257.775 C 285.176 256.628,284.517 256.562,283.235 257.461 C 278.513 260.768,269.959 261.028,266.086 257.982 C 265.540 257.552,264.924 257.200,264.719 257.200 C 261.752 257.200,257.177 248.674,257.090 242.978 C 256.920 232.010,267.168 223.298,277.494 225.631 M329.200 227.186 C 330.630 227.909,331.864 228.669,331.942 228.876 C 332.020 229.083,332.740 229.943,333.542 230.788 C 339.774 237.352,340.399 246.421,335.095 253.317 C 329.780 260.228,319.927 262.414,313.365 258.137 C 311.525 256.938,310.983 258.550,311.130 264.783 C 311.290 271.515,311.292 271.512,307.052 271.556 C 302.846 271.599,303.179 273.650,303.297 248.383 L 303.400 226.256 305.434 226.103 C 307.377 225.957,307.517 226.015,308.584 227.415 C 309.899 229.139,310.925 229.122,313.628 227.334 C 317.003 225.100,324.924 225.025,329.200 227.186 M272.557 232.964 C 263.928 235.058,262.052 247.776,269.812 251.572 C 277.597 255.381,285.495 250.558,285.138 242.215 C 284.906 236.810,282.458 234.050,276.800 232.813 C 274.704 232.355,275.128 232.340,272.557 232.964 M317.253 233.012 C 311.722 234.359,308.729 241.624,311.356 247.326 C 315.131 255.521,328.164 254.489,330.175 245.835 C 332.227 237.011,326.039 230.871,317.253 233.012 M279.578 234.589 C 286.212 237.950,285.629 248.492,278.651 251.363 C 272.549 253.873,265.754 249.337,265.824 242.800 C 265.901 235.552,273.053 231.282,279.578 234.589 M324.716 234.361 C 333.349 238.789,330.199 251.951,320.496 251.991 C 312.683 252.024,308.651 243.716,313.218 236.995 C 315.415 233.760,321.034 232.473,324.716 234.361 " stroke="none" fill="#94c474" fill-rule="evenodd"/>
  </g>
</svg>